<mxfile host="app.diagrams.net" modified="2023-11-29T10:06:54.512Z" agent="Mozilla/5.0 (Windows NT 10.0; Win64; x64) AppleWebKit/537.36 (KHTML, like Gecko) Chrome/119.0.0.0 Safari/537.36" version="22.1.4" etag="Epk0b8bY-vwhT31b2Kvu" type="github">
  <diagram name="Page-1" id="HoRwxSl5VLwoK04HeaAC">
    <mxGraphModel>
      <root>
        <mxCell id="0" />
        <mxCell id="1" parent="0" />
      </root>
    </mxGraphModel>
  </diagram>
</mxfile>
